# xmcd CD database file
#
# Track frame offsets:
#	182
#	20410
#	45910
#	64810
#	88447
#	103102
#	128110
#	148937
#	176335
#	194215
#
# Disc length: 2919 seconds
#
# Revision: 3
# Processed by: cddbd v1.5PL3 Copyright (c) Steve Scherf et al.
# Submitted via: CDex 1.50
#
DISCID=930b650a
DTITLE=Shawnn Monteiro - visit me
DYEAR=1900
DGENRE=Jazz
TTITLE0=VISIT ME
TTITLE1=AFTER GLOW
TTITLE2=APARTMENT 101
TTITLE3=MUSIC THAT MAKES ME DANCE
TTITLE4=THE GRASS IS GREENER
TTITLE5=MY ONE AND ONLY LOVE
TTITLE6=SEVEN DAYS 'TIL SPRING
TTITLE7=WHERE DO YOU GO
TTITLE8=I'M READY TO FALL IN LOVE
TTITLE9=THE LAST DAY OF SUMMER
EXTD=
EXTT0=
EXTT1=
EXTT2=
EXTT3=
EXTT4=
EXTT5=
EXTT6=
EXTT7=
EXTT8=
EXTT9=
PLAYORDER=
